<svg width="437" height="399" viewBox="0 0 437 399" fill="none" xmlns="http://www.w3.org/2000/svg">
<g clip-path="url(#clip0_1_3)">
<rect width="437" height="399" fill="#CDFAE5"/>
<path d="M284.474 394.538L202.611 233.86C202.588 233.467 202.476 233.086 202.285 232.751C202.095 232.416 201.831 232.137 201.518 231.94C201.159 231.716 200.749 231.608 200.336 231.629C200.322 231.628 200.309 231.629 200.296 231.628C200.282 231.629 200.269 231.628 200.256 231.629C199.696 231.6 199.147 231.808 198.725 232.21C198.303 232.612 198.04 233.175 197.99 233.783L111.228 394.538C111.083 394.811 110.989 395.112 110.951 395.424C110.913 395.736 110.932 396.053 111.007 396.357C111.082 396.661 111.211 396.946 111.387 397.195C111.563 397.445 111.782 397.654 112.033 397.812C112.283 397.969 112.559 398.071 112.846 398.112C113.132 398.153 113.424 398.133 113.703 398.051C113.982 397.969 114.244 397.829 114.473 397.637C114.702 397.446 114.895 397.207 115.039 396.934L200.237 239.078L280.663 396.934C280.807 397.207 280.999 397.446 281.229 397.637C281.458 397.829 281.719 397.969 281.999 398.051C282.278 398.133 282.569 398.153 282.856 398.112C283.142 398.071 283.419 397.969 283.669 397.812C283.919 397.654 284.139 397.445 284.315 397.195C284.491 396.946 284.62 396.661 284.694 396.357C284.769 396.053 284.788 395.736 284.75 395.424C284.712 395.112 284.618 394.811 284.474 394.538Z" fill="#3F3D56"/>
<path d="M186.731 366.971L195.984 364.659L192.199 324.706L178.542 328.117L186.731 366.971Z" fill="#FFB6B6"/>
<path d="M193.885 347.67L180.717 350.958L176.506 342.001L176.268 341.683C174.4 339.187 173.363 336.077 173.326 332.858L162.382 301.34L161.487 300.877C160.794 300.518 160.18 300.003 159.685 299.366C159.19 298.728 158.826 297.983 158.617 297.18C158.408 296.377 158.358 295.535 158.471 294.71C158.585 293.884 158.859 293.095 159.275 292.394L158.116 289.057L125.421 289.122L125.389 289.112L85.2401 276.852L89.4557 249.495L100.749 257.229C104.471 256.966 168.22 252.705 174.11 268.258C179.354 282.108 186.911 305.77 192.328 323.181C192.598 323.962 192.933 324.715 193.331 325.43C194.173 326.843 194.668 328.468 194.767 330.149C194.83 330.88 194.959 331.603 195.149 332.308C197.4 339.634 193.971 347.476 193.936 347.555L193.885 347.67Z" fill="#2F2E41"/>
<path d="M183.605 363.63L186.613 362.878L197.263 354.745L204.654 358.372L204.655 358.372C208.212 357.484 211.948 358.17 215.041 360.281C218.134 362.391 220.33 365.752 221.146 369.625L221.246 370.1L186.783 378.708L183.605 363.63Z" fill="#2F2E41"/>
<path d="M46.9846 364.527C47.9253 353.38 53.9234 342.219 63.5438 338.265C60.0449 349.828 60.4157 362.365 64.5904 373.658C66.2149 378.007 68.4378 382.66 67.1627 387.146C66.3694 389.936 64.2918 392.123 61.9387 393.527C59.5855 394.931 56.9492 395.653 54.3458 396.362L53.8436 396.844C49.38 386.759 46.0438 375.675 46.9846 364.527Z" fill="#F3BA00"/>
<path d="M63.6465 338.472C58.1859 345.579 54.9212 354.379 54.3163 363.622C54.1536 365.609 54.2797 367.612 54.6898 369.556C55.1456 371.436 56.0556 373.149 57.3251 374.517C58.4853 375.818 59.8104 377.003 60.6598 378.588C61.0836 379.407 61.3436 380.314 61.4228 381.25C61.502 382.185 61.3986 383.129 61.1194 384.018C60.4767 386.253 59.1346 388.103 57.7643 389.863C56.2429 391.818 54.6342 393.821 54.038 396.362C53.9657 396.67 53.5311 396.53 53.6033 396.222C54.6406 391.802 58.4729 389.177 60.2191 385.167C61.0339 383.296 61.3356 381.146 60.4635 379.231C59.7009 377.557 58.3353 376.334 57.1501 375.027C55.8937 373.713 54.952 372.083 54.4074 370.281C53.9076 368.366 53.7109 366.372 53.8257 364.385C54.0185 359.906 54.8569 355.488 56.3102 351.293C57.9445 346.496 60.3207 342.038 63.3358 338.112C63.5225 337.87 63.832 338.23 63.6465 338.472Z" fill="white"/>
<path d="M54.3502 360.633C52.9395 360.312 51.6796 359.456 50.7955 358.217C49.9113 356.978 49.4605 355.437 49.5235 353.87C49.5266 353.806 49.5524 353.746 49.5954 353.702C49.6384 353.659 49.6952 353.635 49.754 353.636C49.8128 353.637 49.8688 353.663 49.9104 353.708C49.9519 353.754 49.9757 353.815 49.9767 353.879C49.9156 355.338 50.3357 356.773 51.1612 357.925C51.9867 359.077 53.1632 359.87 54.4784 360.16C54.7641 360.224 54.6343 360.696 54.3502 360.633Z" fill="white"/>
<path d="M56.657 373.941C59.1366 372.21 60.9255 369.524 61.6671 366.42C61.7404 366.113 62.175 366.253 62.1018 366.56C61.3246 369.788 59.4577 372.579 56.8737 374.375C56.6274 374.546 56.412 374.111 56.657 373.941Z" fill="white"/>
<path d="M58.3786 346.948C58.9006 347.196 59.471 347.299 60.0387 347.248C60.6063 347.197 61.1533 346.993 61.6307 346.654C61.8749 346.48 62.0901 346.915 61.8474 347.088C61.3184 347.459 60.714 347.683 60.087 347.741C59.46 347.8 58.8294 347.69 58.2504 347.421C58.1939 347.401 58.1466 347.358 58.1181 347.301C58.0896 347.244 58.0821 347.178 58.0971 347.115C58.1144 347.053 58.1536 347 58.2063 346.969C58.259 346.937 58.3209 346.93 58.3786 346.948Z" fill="white"/>
<path d="M93.778 357.06C93.6283 357.174 93.4786 357.287 93.3288 357.405C91.3236 358.943 89.4364 360.656 87.686 362.527C87.5486 362.669 87.4112 362.816 87.2778 362.962C83.1048 367.518 79.745 372.878 77.3693 378.769C76.426 381.114 75.6479 383.534 75.0417 386.008C74.2049 389.425 73.5472 393.201 71.7746 396.034C71.5927 396.332 71.3941 396.617 71.1798 396.888L54.4233 397.474C54.3846 397.454 54.3459 397.439 54.307 397.42L53.639 397.476C53.662 397.346 53.6885 397.212 53.7116 397.082C53.7247 397.007 53.7415 396.931 53.7546 396.856C53.7645 396.805 53.7746 396.755 53.781 396.709C53.7842 396.692 53.7876 396.675 53.791 396.663C53.7973 396.617 53.8076 396.575 53.8141 396.533C53.9603 395.782 54.1116 395.031 54.268 394.28C54.2679 394.275 54.2679 394.275 54.2715 394.271C55.4131 388.535 57.1757 382.966 59.5225 377.681C59.5945 377.524 59.6661 377.363 59.7458 377.207C60.8356 374.866 62.0994 372.625 63.5245 370.508C64.3082 369.352 65.1452 368.24 66.0323 367.175C68.3293 364.43 71.0085 362.095 73.9719 360.257C79.8799 356.592 86.7987 355.025 93.2838 356.911C93.4497 356.959 93.612 357.008 93.778 357.06Z" fill="#F3BA00"/>
<path d="M93.7471 357.293C85.4563 359.389 77.9829 364.275 72.3883 371.259C71.1595 372.739 70.1525 374.42 69.4047 376.242C68.7288 378.041 68.508 380.005 68.7652 381.93C68.972 383.729 69.3748 385.544 69.1762 387.366C69.0617 388.298 68.7678 389.192 68.3135 389.991C67.8593 390.79 67.255 391.476 66.5403 392.003C64.791 393.366 62.696 393.964 60.6286 394.471C58.3331 395.034 55.9407 395.579 54.0593 397.217C53.8314 397.416 53.5618 397.019 53.7894 396.821C57.0626 393.971 61.5739 394.387 65.186 392.33C66.8714 391.37 68.3013 389.851 68.6639 387.751C68.9809 385.914 68.567 384.043 68.3432 382.223C68.067 380.35 68.2163 378.431 68.7781 376.636C69.4383 374.779 70.3841 373.058 71.5748 371.546C74.2055 368.097 77.3181 365.119 80.7985 362.722C84.7568 359.962 89.1195 357.96 93.6978 356.802C93.9812 356.731 94.0287 357.222 93.7471 357.293Z" fill="white"/>
<path d="M74.0682 368.895C73.1194 367.714 72.5871 366.204 72.5663 364.635C72.5456 363.067 73.0377 361.541 73.9548 360.331C74.1412 360.087 74.4984 360.39 74.3119 360.635C73.4559 361.76 72.9976 363.181 73.0197 364.642C73.0418 366.103 73.5428 367.507 74.4323 368.601C74.6253 368.839 74.2601 369.131 74.0682 368.895Z" fill="white"/>
<path d="M68.5501 381.032C71.4876 381.275 74.4011 380.303 76.7098 378.311C76.9384 378.113 77.208 378.51 76.9797 378.707C74.5737 380.776 71.5398 381.78 68.4835 381.52C68.1922 381.495 68.2603 381.008 68.5501 381.032Z" fill="white"/>
<path d="M84.8531 360.608C85.1327 361.148 85.5313 361.605 86.0129 361.936C86.4945 362.267 87.044 362.462 87.6123 362.505C87.9037 362.526 87.8352 363.014 87.5457 362.993C86.9181 362.943 86.3113 362.726 85.7785 362.361C85.2457 361.997 84.8029 361.496 84.489 360.902C84.4551 360.849 84.4411 360.783 84.4498 360.719C84.4586 360.655 84.4894 360.597 84.5361 360.557C84.5845 360.518 84.6449 360.502 84.7043 360.512C84.7636 360.521 84.8171 360.556 84.8531 360.608Z" fill="white"/>
<path d="M321.136 364.527C320.196 353.38 314.198 342.219 304.577 338.265C308.076 349.828 307.705 362.365 303.531 373.658C301.906 378.007 299.683 382.66 300.958 387.146C301.752 389.936 303.829 392.123 306.182 393.527C308.536 394.931 311.172 395.653 313.775 396.362L314.277 396.844C318.741 386.759 322.077 375.675 321.136 364.527Z" fill="#F3BA00"/>
<path d="M304.475 338.472C309.935 345.579 313.2 354.379 313.805 363.622C313.967 365.609 313.841 367.612 313.431 369.556C312.975 371.436 312.065 373.149 310.796 374.517C309.636 375.818 308.311 377.003 307.461 378.588C307.037 379.407 306.777 380.314 306.698 381.25C306.619 382.185 306.722 383.129 307.002 384.018C307.644 386.253 308.986 388.103 310.357 389.863C311.878 391.818 313.487 393.821 314.083 396.362C314.155 396.67 314.59 396.53 314.518 396.222C313.48 391.802 309.648 389.177 307.902 385.167C307.087 383.296 306.785 381.146 307.658 379.231C308.42 377.557 309.786 376.334 310.971 375.027C312.227 373.713 313.169 372.083 313.714 370.281C314.213 368.366 314.41 366.372 314.295 364.385C314.103 359.906 313.264 355.488 311.811 351.293C310.177 346.496 307.8 342.038 304.785 338.112C304.598 337.87 304.289 338.23 304.475 338.472Z" fill="white"/>
<path d="M313.771 360.633C315.182 360.312 316.441 359.456 317.326 358.217C318.21 356.978 318.661 355.437 318.598 353.87C318.595 353.806 318.569 353.746 318.526 353.702C318.483 353.659 318.426 353.635 318.367 353.636C318.308 353.637 318.252 353.663 318.211 353.708C318.169 353.754 318.145 353.815 318.144 353.879C318.205 355.338 317.785 356.773 316.96 357.925C316.134 359.077 314.958 359.87 313.643 360.16C313.357 360.224 313.487 360.696 313.771 360.633Z" fill="white"/>
<path d="M311.464 373.941C308.984 372.21 307.195 369.524 306.454 366.42C306.381 366.113 305.946 366.253 306.019 366.56C306.796 369.788 308.663 372.579 311.247 374.375C311.494 374.546 311.709 374.111 311.464 373.941Z" fill="white"/>
<path d="M309.742 346.948C309.22 347.196 308.65 347.299 308.082 347.248C307.515 347.197 306.968 346.993 306.49 346.654C306.246 346.48 306.031 346.915 306.274 347.088C306.803 347.459 307.407 347.683 308.034 347.741C308.661 347.8 309.292 347.69 309.871 347.421C309.927 347.401 309.974 347.358 310.003 347.301C310.031 347.244 310.039 347.178 310.024 347.115C310.007 347.053 309.967 347 309.915 346.969C309.862 346.937 309.8 346.93 309.742 346.948Z" fill="white"/>
<path d="M274.343 357.06C274.493 357.174 274.642 357.287 274.792 357.405C276.797 358.943 278.685 360.656 280.435 362.527C280.572 362.669 280.71 362.816 280.843 362.962C285.016 367.518 288.376 372.878 290.752 378.769C291.695 381.114 292.473 383.534 293.079 386.008C293.916 389.425 294.574 393.201 296.346 396.034C296.528 396.332 296.727 396.617 296.941 396.888L313.698 397.474C313.736 397.454 313.775 397.439 313.814 397.42L314.482 397.476C314.459 397.346 314.433 397.212 314.409 397.082C314.396 397.007 314.38 396.931 314.366 396.856C314.357 396.805 314.346 396.755 314.34 396.709C314.337 396.692 314.333 396.675 314.33 396.663C314.324 396.617 314.313 396.575 314.307 396.533C314.161 395.782 314.009 395.031 313.853 394.28C313.853 394.275 313.853 394.275 313.85 394.271C312.708 388.535 310.945 382.966 308.599 377.681C308.527 377.524 308.455 377.363 308.375 377.207C307.285 374.866 306.022 372.625 304.597 370.508C303.813 369.352 302.976 368.24 302.089 367.175C299.792 364.43 297.113 362.095 294.149 360.257C288.241 356.592 281.322 355.025 274.837 356.911C274.671 356.959 274.509 357.008 274.343 357.06Z" fill="#F3BA00"/>
<path d="M274.374 357.293C282.665 359.389 290.138 364.275 295.733 371.259C296.962 372.739 297.968 374.42 298.716 376.242C299.392 378.041 299.613 380.005 299.356 381.93C299.149 383.729 298.746 385.543 298.945 387.366C299.059 388.298 299.353 389.192 299.808 389.991C300.262 390.79 300.866 391.476 301.581 392.003C303.33 393.366 305.425 393.964 307.492 394.471C309.788 395.034 312.18 395.579 314.062 397.217C314.29 397.416 314.559 397.019 314.332 396.821C311.058 393.971 306.547 394.387 302.935 392.33C301.25 391.37 299.82 389.851 299.457 387.751C299.14 385.914 299.554 384.043 299.778 382.223C300.054 380.35 299.905 378.431 299.343 376.636C298.683 374.779 297.737 373.058 296.546 371.546C293.916 368.097 290.803 365.119 287.323 362.722C283.364 359.962 279.002 357.96 274.423 356.802C274.14 356.731 274.092 357.222 274.374 357.293Z" fill="white"/>
<path d="M294.053 368.895C295.002 367.714 295.534 366.204 295.555 364.635C295.576 363.067 295.083 361.541 294.166 360.331C293.98 360.087 293.623 360.39 293.809 360.635C294.665 361.76 295.123 363.181 295.101 364.642C295.079 366.103 294.578 367.507 293.689 368.601C293.496 368.839 293.861 369.131 294.053 368.895Z" fill="white"/>
<path d="M299.571 381.032C296.633 381.275 293.72 380.303 291.411 378.311C291.183 378.113 290.913 378.51 291.141 378.707C293.547 380.776 296.581 381.78 299.638 381.52C299.929 381.495 299.861 381.008 299.571 381.032Z" fill="white"/>
<path d="M283.268 360.608C282.988 361.148 282.59 361.605 282.108 361.936C281.627 362.267 281.077 362.462 280.509 362.505C280.217 362.526 280.286 363.014 280.575 362.993C281.203 362.943 281.81 362.726 282.343 362.361C282.875 361.997 283.318 361.496 283.632 360.902C283.666 360.849 283.68 360.783 283.671 360.719C283.662 360.655 283.632 360.597 283.585 360.557C283.537 360.518 283.476 360.502 283.417 360.512C283.357 360.521 283.304 360.556 283.268 360.608Z" fill="white"/>
<path d="M437 398.367C437 398.534 436.938 398.695 436.829 398.814C436.72 398.933 436.572 399 436.418 399H0.582112C0.427783 399 0.279773 398.933 0.170647 398.814C0.0615197 398.696 0.000213623 398.535 0.000213623 398.367C0.000213623 398.199 0.0615197 398.037 0.170647 397.919C0.279773 397.8 0.427783 397.733 0.582112 397.733H436.418C436.572 397.733 436.72 397.8 436.829 397.919C436.938 398.038 437 398.199 437 398.367Z" fill="#3F3D56"/>
<path d="M280.734 153.312C281.95 153.312 282.935 152.24 282.935 150.917C282.935 149.594 281.95 148.521 280.734 148.521C279.519 148.521 278.534 149.594 278.534 150.917C278.534 152.24 279.519 153.312 280.734 153.312Z" fill="#3F3D56"/>
<path d="M253.18 169.368L282.846 149.079C283.114 148.895 283.414 148.773 283.727 148.719C284.04 148.665 284.36 148.681 284.667 148.765C284.975 148.849 285.263 149.001 285.515 149.21C285.767 149.419 285.978 149.681 286.134 149.982C286.29 150.282 286.389 150.613 286.424 150.956C286.46 151.299 286.431 151.646 286.339 151.977C286.248 152.307 286.096 152.614 285.893 152.878C285.689 153.143 285.439 153.36 285.156 153.517L253.925 170.799C253.752 170.895 253.551 170.914 253.365 170.853C253.178 170.792 253.021 170.655 252.925 170.471C252.829 170.287 252.802 170.069 252.85 169.864C252.897 169.659 253.016 169.481 253.18 169.368Z" fill="#E4E4E4"/>
<path d="M193.665 213.057C193.432 212.679 193.31 212.232 193.316 211.776C193.322 211.32 193.456 210.877 193.699 210.507C194.201 209.775 194.87 209.198 195.639 208.832C197.226 207.953 198.936 207.365 200.699 207.092C202.039 206.884 203.502 206.818 204.541 205.875C205.574 204.937 206.149 203.184 207.487 203.038C208.781 202.897 209.775 204.438 211.072 204.534C212.671 204.652 213.717 202.615 215.273 202.197C216.314 201.917 217.385 202.411 218.362 202.893L224.223 205.788L227.228 207.272C228.277 207.79 229.461 208.488 229.659 209.724C229.931 211.422 228.196 212.62 226.713 213.223C216.121 217.479 204.482 217.48 193.89 213.228" fill="#1AC073"/>
<path d="M202.496 244.341C245.031 244.341 279.512 238.979 279.512 232.364C279.512 225.749 245.031 220.386 202.496 220.386C159.961 220.386 125.48 225.749 125.48 232.364C125.48 238.979 159.961 244.341 202.496 244.341Z" fill="#3F3D56"/>
<path d="M358.728 306.624H305.917C303.487 306.624 301.516 308.769 301.516 311.415C301.516 314.061 303.487 316.206 305.917 316.206H358.728C361.159 316.206 363.129 314.061 363.129 311.415C363.129 308.769 361.159 306.624 358.728 306.624Z" fill="#3F3D56"/>
<path d="M384.322 221.206L366.88 311.41L371.422 334.497L379.999 378.069V397.653C380 397.68 379.998 397.707 379.994 397.733C379.991 398.166 379.918 398.595 379.779 399H372.885C372.745 398.595 372.672 398.166 372.669 397.733C372.665 397.707 372.664 397.68 372.664 397.653V378.91L364.88 339.363L363.305 331.378L360.259 315.903L359.379 311.42V311.415L360.249 306.922L360.919 303.457L377.144 219.566C377.242 219.053 377.433 218.565 377.704 218.132C377.976 217.699 378.323 217.328 378.727 217.041C379.13 216.754 379.581 216.556 380.055 216.459C380.528 216.362 381.015 216.367 381.486 216.475C381.958 216.583 382.406 216.791 382.803 217.087C383.201 217.383 383.541 217.761 383.805 218.201C384.068 218.64 384.249 219.132 384.338 219.647C384.427 220.163 384.421 220.693 384.322 221.206Z" fill="#3F3D56"/>
<path d="M309.585 311.415V397.653C309.586 397.68 309.584 397.707 309.58 397.733C309.577 398.166 309.504 398.595 309.365 399H302.47C302.331 398.595 302.258 398.166 302.255 397.733C302.251 397.707 302.249 397.68 302.25 397.653V311.415C302.25 310.356 302.636 309.341 303.324 308.592C304.012 307.843 304.945 307.423 305.917 307.423C306.89 307.423 307.823 307.843 308.511 308.592C309.198 309.341 309.585 310.356 309.585 311.415Z" fill="#3F3D56"/>
<path d="M314.719 297.042H349.926C353.428 297.042 356.786 298.556 359.262 301.252C361.738 303.947 363.129 307.603 363.129 311.415H301.516C301.516 307.603 302.907 303.947 305.383 301.252C307.859 298.556 311.218 297.042 314.719 297.042Z" fill="#3F3D56"/>
<path d="M367.53 339.363H305.917C304.945 339.363 304.012 338.942 303.324 338.193C302.636 337.445 302.25 336.429 302.25 335.37C302.25 334.311 302.636 333.296 303.324 332.547C304.012 331.798 304.945 331.378 305.917 331.378H367.53C368.503 331.378 369.435 331.798 370.123 332.547C370.811 333.296 371.197 334.311 371.197 335.37C371.197 336.429 370.811 337.445 370.123 338.193C369.435 338.942 368.503 339.363 367.53 339.363Z" fill="#3F3D56"/>
<path d="M80.9378 316.351H143.084C145.514 316.351 147.485 314.206 147.485 311.56V310.109C147.485 307.463 145.514 305.318 143.084 305.318H80.9378C78.5073 305.318 76.5369 307.463 76.5369 310.109V311.56C76.5369 314.206 78.5073 316.351 80.9378 316.351Z" fill="#3F3D56"/>
<path d="M80.2978 310.899L79.1729 315.945L75.0459 334.428L73.2661 342.413L65.002 379.453V395.524C65.0042 396.311 64.7896 397.08 64.386 397.733C64.0687 398.261 63.6372 398.696 63.1294 399H59.5401C59.0323 398.696 58.6008 398.261 58.2835 397.733C57.8798 397.08 57.6651 396.311 57.6672 395.524V378.495L66.8506 337.345L72.7772 310.771L52.6797 206.833C52.5802 206.32 52.5746 205.791 52.6632 205.275C52.7517 204.76 52.9327 204.269 53.1958 203.829C53.4589 203.39 53.7989 203.012 54.1965 202.716C54.594 202.42 55.0412 202.212 55.5125 202.104C55.9839 201.997 56.4701 201.991 56.9434 202.088C57.4167 202.185 57.8678 202.383 58.2709 202.669C58.6741 202.956 59.0213 203.327 59.2928 203.76C59.5642 204.193 59.7546 204.68 59.8531 205.193L78.4299 301.242L79.2856 305.671L80.283 310.835L80.2978 310.899Z" fill="#3F3D56"/>
<path d="M146.086 310.835V395.524C146.089 396.311 145.874 397.08 145.47 397.733C145.153 398.261 144.721 398.696 144.214 399H140.619C140.114 398.694 139.684 398.259 139.368 397.733C138.964 397.08 138.749 396.311 138.752 395.524V310.835C138.752 309.776 139.138 308.76 139.826 308.012C140.514 307.263 141.446 306.842 142.419 306.842C143.392 306.842 144.324 307.263 145.012 308.012C145.7 308.76 146.086 309.776 146.086 310.835Z" fill="#3F3D56"/>
<path d="M147.485 310.834H76.5369V308.657C76.5369 306.769 76.8784 304.9 77.5419 303.156C78.2054 301.413 79.1779 299.828 80.4039 298.493C81.6299 297.159 83.0854 296.1 84.6872 295.378C86.289 294.655 88.0058 294.284 89.7396 294.284H134.282C137.784 294.284 141.142 295.798 143.618 298.493C146.094 301.189 147.485 304.845 147.485 308.657L147.485 310.834Z" fill="#3F3D56"/>
<path d="M142.417 342.411H71.4692C70.4965 342.411 69.5637 341.991 68.876 341.242C68.1882 340.493 67.8018 339.478 67.8018 338.419C67.8018 337.36 68.1882 336.344 68.876 335.596C69.5637 334.847 70.4965 334.426 71.4692 334.426H142.417C143.39 334.426 144.323 334.847 145.01 335.596C145.698 336.344 146.085 337.36 146.085 338.419C146.085 339.478 145.698 340.493 145.01 341.242C144.323 341.991 143.39 342.411 142.417 342.411Z" fill="#3F3D56"/>
<path d="M233.597 377.239L225.889 373.225L236.477 338.151L247.853 344.073L233.597 377.239Z" fill="#FFB6B6"/>
<path d="M285.835 374.062L277.546 376.288L265.537 341.768L277.771 338.482L285.835 374.062Z" fill="#FFB6B6"/>
<path d="M254.067 224.787C255.166 226.731 256.92 228.13 258.954 228.685C260.988 229.241 263.14 228.909 264.952 227.76C265.317 227.52 265.662 227.247 265.985 226.945L290.355 242.17L289.296 226.541L266.317 214.48C265.067 213.112 263.435 212.235 261.677 211.986C259.92 211.737 258.136 212.13 256.606 213.103C255.725 213.679 254.958 214.441 254.352 215.344C253.745 216.247 253.311 217.274 253.074 218.362C252.838 219.451 252.804 220.58 252.974 221.684C253.145 222.787 253.516 223.842 254.067 224.787Z" fill="#9E616A"/>
<path d="M279.878 236.437L284.185 239.295L303.532 252.138C304.803 253.003 306.218 253.588 307.696 253.858C309.174 254.127 310.687 254.077 312.148 253.71C313.608 253.343 314.988 252.667 316.208 251.719C317.428 250.771 318.465 249.57 319.259 248.186C320.691 245.617 321.198 242.561 320.681 239.608L312.083 192.842C311.765 191.006 311.087 189.266 310.095 187.742C309.103 186.217 307.82 184.944 306.334 184.009C304.849 183.074 303.195 182.5 301.487 182.324C299.778 182.149 298.055 182.378 296.435 182.994C293.712 184.036 291.456 186.168 290.126 188.956C288.796 191.744 288.491 194.98 289.274 198.004L298.266 231.193L284.483 224.198L279.878 236.437Z" fill="#E6E6E6"/>
<path d="M269.693 364.388L256.429 335.429L256.431 335.363L257.741 282.249C257.757 281.777 257.792 281.302 257.845 280.835C258.076 278.705 258.695 276.647 259.664 274.78C260.634 272.913 261.935 271.275 263.492 269.962C264.983 268.692 266.692 267.757 268.518 267.214C270.344 266.67 272.252 266.527 274.129 266.795L312.055 272.138L313.37 266.283L313.615 266.186L349.954 251.687L350.164 252.059C354.923 260.489 358.25 277.328 359.156 282.289L359.169 282.36C359.189 282.465 359.2 282.528 359.204 282.546C361.075 291.011 353.345 305.033 345.645 307.14C329.425 311.641 314.919 308.13 298.122 304.065C292.099 302.606 285.874 301.099 279.018 299.796L279.221 304.189C279.388 307.57 280.034 310.903 281.134 314.071C282.357 317.968 283.323 321.047 281.281 327.467L280.293 330.572C280.805 332.114 280.982 333.764 280.808 335.392C280.635 337.021 280.116 338.583 279.293 339.957L279.095 340.287L287.841 364.382L269.693 364.388Z" fill="#2F2E41"/>
<path d="M247.901 351.581L232.084 349.981L237.688 330.473C238.844 317.734 241.758 305.259 246.33 293.466L253.973 273.748C253.991 273.309 254.025 272.867 254.074 272.434C254.305 270.305 254.924 268.247 255.893 266.38C256.863 264.513 258.164 262.875 259.721 261.561C261.212 260.292 262.921 259.358 264.747 258.814C266.573 258.27 268.481 258.128 270.358 258.395L308.228 263.73L309.877 248.659L346.226 243.364L346.393 243.659C352.746 254.912 356.78 263.722 359.086 271.384C359.202 271.775 359.305 272.174 359.393 272.571C361.276 281.093 356.575 289.732 348.912 291.83C329.384 297.25 305.902 297.1 275.028 291.354L260.085 330.065C258.657 333.763 256.889 337.293 254.808 340.603L247.901 351.581Z" fill="#2F2E41"/>
<path d="M303.07 156.154C313.189 156.154 321.392 147.026 321.392 135.765C321.392 124.504 313.189 115.375 303.07 115.375C292.952 115.375 284.749 124.504 284.749 135.765C284.749 147.026 292.952 156.154 303.07 156.154Z" fill="#FFB6B6"/>
<path d="M308.361 264.442L305.732 254.189L305.085 249.132L301.307 249.269L293.891 230.636L291.011 225.722C290.424 225.049 289.892 224.402 289.415 223.78C286.414 220.087 284.008 215.869 282.298 211.304C281.099 208.023 280.396 204.554 280.214 201.029C279.677 190.618 283.708 179.603 292.539 167.357C292.395 166.923 292.298 166.473 292.252 166.014C292.094 164.526 292.482 163.031 293.332 161.853C294.181 160.675 295.424 159.911 296.789 159.725L305.307 158.684C305.969 158.602 306.64 158.665 307.28 158.868C307.92 159.071 308.516 159.411 309.034 159.867C309.575 160.339 310.025 160.924 310.356 161.587C310.688 162.25 310.894 162.978 310.965 163.729C311.079 164.891 310.869 166.063 310.362 167.093C314.704 167.693 318.795 169.644 322.143 172.712C325.492 175.779 327.957 179.834 329.242 184.388C334.339 194.746 338.401 205.669 341.36 216.97C341.943 219.184 341.683 221.464 341.432 223.67C341.2 225.707 340.96 227.814 341.364 229.914C341.774 232.049 342.761 234.191 343.806 236.46C345.003 239.057 346.24 241.743 346.575 244.482L346.598 244.674L308.361 264.442Z" fill="#E4E4E4"/>
<path opacity="0.2" d="M282.524 211.203C284.226 215.742 286.619 219.936 289.602 223.609C290.113 224.273 290.653 224.926 291.218 225.579L294.116 230.53C304.799 221.812 313.455 187.487 313.455 187.487L301.401 184.934L282.524 211.203Z" fill="black"/>
<path d="M275.226 158.059C276.282 160.033 276.588 162.377 276.08 164.593C275.572 166.809 274.29 168.722 272.506 169.925C272.14 170.163 271.757 170.368 271.36 170.537L272.213 201.112L260.051 192.777L261.105 165.02C260.588 163.173 260.646 161.192 261.272 159.385C261.898 157.578 263.056 156.048 264.564 155.032C265.443 154.453 266.42 154.072 267.436 153.911C268.453 153.75 269.488 153.813 270.482 154.095C271.476 154.377 272.408 154.873 273.223 155.554C274.038 156.235 274.719 157.087 275.226 158.059Z" fill="#FFB6B6"/>
<path d="M273.282 189.571L259.907 191.641L260.482 221.793C260.515 223.944 261.053 226.05 262.045 227.911C263.037 229.772 264.449 231.326 266.148 232.425C268.223 233.754 270.639 234.313 273.031 234.018C275.423 233.722 277.663 232.588 279.411 230.786L310.988 197.721C313.21 195.427 314.539 192.293 314.703 188.964C314.867 185.635 313.853 182.364 311.87 179.824C310.889 178.559 309.684 177.522 308.327 176.774C306.97 176.026 305.489 175.582 303.972 175.469C302.455 175.356 300.932 175.576 299.494 176.116C298.057 176.655 296.733 177.504 295.603 178.611C295.291 178.915 294.994 179.237 294.713 179.575L273.863 205.688L273.282 189.571Z" fill="#E6E6E6"/>
<path d="M161.417 386.244L170.911 386.244L175.427 346.38L161.416 346.381L161.417 386.244Z" fill="#FFB6B6"/>
<path d="M107.607 156.746C118.072 156.746 126.555 147.511 126.555 136.119C126.555 124.727 118.072 115.492 107.607 115.492C97.143 115.492 88.6599 124.727 88.6599 136.119C88.6599 147.511 97.143 156.746 107.607 156.746Z" fill="#FFB6B6"/>
<path d="M174.009 373.964H160.566L157.138 368.963L156.211 364.251L155.412 363.41C154.329 362.278 153.629 360.781 153.425 359.162C153.221 357.542 153.525 355.895 154.288 354.488L144.545 305.001C141.994 304.757 113.216 301.956 93.2121 298.102C88.0926 297.116 84.0956 294.406 81.3319 290.05C74.5409 279.344 77.45 262.022 77.4801 261.848L77.5137 261.655L77.6931 261.633L124.418 255.924L124.481 255.956C126.032 256.756 162.525 275.616 168.489 282.108C171.182 285.04 177.19 302.458 178.535 320.976C178.776 324.293 177.909 327.672 177.07 330.939C176.286 333.996 175.474 337.157 175.635 340.146C175.882 344.756 176.116 349.593 176.331 354.521C176.366 355.307 176.909 356.119 177.435 356.905C177.984 357.726 178.502 358.502 178.535 359.313C178.855 367.183 174.13 373.797 174.082 373.863L174.009 373.964Z" fill="#2F2E41"/>
<path d="M177.07 191.059C176.052 190.756 174.986 190.7 173.946 190.894C172.906 191.089 171.917 191.529 171.051 192.184C170.184 192.839 169.459 193.693 168.929 194.686C168.398 195.679 168.073 196.786 167.978 197.93L152.235 203.287L152.892 214.496L175.026 206.591C176.803 206.638 178.533 205.974 179.889 204.724C181.245 203.475 182.133 201.728 182.385 199.813C182.637 197.899 182.235 195.95 181.256 194.337C180.276 192.723 178.787 191.557 177.07 191.059Z" fill="#FFB6B6"/>
<path d="M166.798 209.608L155.032 214.456L154.731 215.091C154.01 216.615 152.762 217.764 151.262 218.286C149.763 218.808 148.134 218.66 146.735 217.875L120.288 228.772C120.288 228.772 108.477 215.905 100.069 204.422L102.935 185.233C103.598 180.78 105.009 176.499 107.096 172.603C124.341 176.719 134.24 202.963 134.24 202.963L165.32 196.507L166.798 209.608Z" fill="#1AC073"/>
<path d="M104.915 155.644C100.171 157.038 94.9418 155.184 91.24 151.667C87.5382 148.15 85.2225 143.166 83.8882 138.018C82.911 134.247 82.4477 130.062 83.9898 126.523C85.5318 122.983 89.682 120.595 92.8839 122.383C90.9087 119.878 91.8955 115.734 94.2023 113.591C96.5092 111.448 99.677 110.833 102.694 110.497C107.072 110.01 111.595 109.955 115.762 111.5C119.928 113.044 123.714 116.42 125.018 120.996C126.35 121.671 127.849 121.846 129.282 121.494C130.715 121.142 132.001 120.282 132.937 119.05C133.178 120.465 132.984 121.928 132.385 123.212C131.786 124.495 130.815 125.528 129.623 126.15L136.006 123.897C137.104 126.427 135.18 129.558 132.72 130.368C130.26 131.178 127.605 130.293 125.27 129.122C122.936 127.952 120.674 126.472 118.138 126.016C115.602 125.559 112.623 126.446 111.451 128.936C110.836 130.24 110.804 131.767 110.448 133.18C110.091 134.593 109.187 136.058 107.845 136.174C106.998 136.247 106.167 135.755 105.322 135.856C104.274 135.98 103.472 137.014 103.192 138.121C102.982 139.249 102.979 140.411 103.185 141.54L104.806 155.034" fill="#2F2E41"/>
<path d="M81.4408 292.515C81.4372 292.515 81.4336 292.514 81.4301 292.513L81.2803 292.486L81.2369 292.327C80.6922 290.332 79.999 288.291 79.3286 286.316C78.3413 283.581 77.5077 280.784 76.8323 277.939C76.3008 275.219 75.9323 272.465 75.7291 269.693C75.542 267.68 75.3487 265.599 75.0198 263.551C74.8738 262.641 75.4271 261.78 75.9623 260.947C76.4584 260.175 76.9271 259.445 76.8288 258.755C76.7282 258.049 76.0093 257.274 75.314 256.524C74.552 255.703 73.7639 254.853 73.6524 253.959C72.1335 241.758 71.4266 229.453 71.537 217.141C71.694 200.106 72.4012 188.495 73.6388 182.629C76.9668 166.858 92.3421 163.98 94.7487 163.624C95.0051 162.881 95.3992 162.203 95.9065 161.633C96.4139 161.063 97.0236 160.612 97.6978 160.309C98.372 160.007 99.0962 159.858 99.8253 159.873C100.554 159.889 101.273 160.067 101.936 160.397L112.86 165.842C115.076 166.95 117.059 168.542 118.686 170.52C120.313 172.498 121.549 174.819 122.316 177.339L123.939 182.725L124.752 218.88L120.247 244.341L129.049 258.714C82.1387 286.752 81.5919 292.515 81.4408 292.515Z" fill="#1AC073"/>
<path d="M156.309 382.227L159.395 382.227L171.446 376.892L177.905 382.226H177.906C181.555 382.227 185.056 383.805 187.637 386.615C190.218 389.425 191.668 393.235 191.668 397.209V397.696L156.309 397.697L156.309 382.227Z" fill="#2F2E41"/>
<path d="M181.012 216.86C180.102 216.279 179.086 215.921 178.035 215.814C176.985 215.706 175.925 215.85 174.931 216.236C173.938 216.622 173.034 217.241 172.283 218.049C171.533 218.856 170.954 219.833 170.588 220.911L154.106 221.61L151.886 229.968L175.317 231.274C177.02 231.823 178.849 231.674 180.458 230.853C182.067 230.032 183.343 228.597 184.045 226.821C184.747 225.044 184.826 223.049 184.267 221.213C183.708 219.377 182.55 217.828 181.012 216.86Z" fill="#FFB6B6"/>
<path d="M167.473 232.175L150.543 231.945L148.4 231.914L113.955 231.441C113.955 231.441 104.602 221.727 96.4568 211.725L97.5984 202.736C98.712 193.914 102.732 185.833 108.91 179.997C120.575 188.482 127.34 205.279 127.34 205.279L138.683 210.804C146.666 211.193 154.444 213.673 161.358 218.034L165.088 220.386L167.473 232.175Z" fill="#1AC073"/>
<path d="M291.883 391.065L286.249 392.579L283.932 387.059L282.669 393.541L267.728 397.554C267.012 397.747 266.258 397.685 265.577 397.378C264.895 397.071 264.321 396.535 263.94 395.848C263.558 395.161 263.388 394.359 263.454 393.559C263.521 392.759 263.82 392.004 264.309 391.402L274.207 379.226L272.88 373.373L285.614 370.817L291.883 391.065Z" fill="#2F2E41"/>
<path d="M232.206 392.958L226.834 390.57L227.945 384.623L223.419 389.053L209.172 382.722C208.489 382.419 207.913 381.886 207.528 381.201C207.143 380.516 206.969 379.715 207.032 378.914C207.095 378.114 207.391 377.357 207.877 376.753C208.364 376.149 209.014 375.73 209.735 375.558L224.32 372.059L226.413 366.477L238.088 372.573L232.206 392.958Z" fill="#2F2E41"/>
<path d="M213.498 230.234H209.097C204.365 230.228 199.829 228.179 196.483 224.537C193.137 220.894 191.255 215.956 191.249 210.804V210.538H231.346V210.804C231.341 215.956 229.459 220.894 226.113 224.537C222.767 228.179 218.23 230.228 213.498 230.234Z" fill="#E4E4E4"/>
<path d="M209.097 203.618C209.097 204.941 206.897 206.013 206.897 206.013C206.897 206.013 204.697 204.941 204.697 203.618C204.697 202.295 206.897 201.222 206.897 201.222C206.897 201.222 209.097 202.295 209.097 203.618Z" fill="#3F3D56"/>
<path d="M222.3 203.618C222.3 204.941 220.1 206.013 220.1 206.013C220.1 206.013 217.899 204.941 217.899 203.618C217.899 202.295 220.1 201.222 220.1 201.222C220.1 201.222 222.3 202.295 222.3 203.618Z" fill="#3F3D56"/>
<path d="M213.498 208.409C213.498 209.732 211.298 210.804 211.298 210.804C211.298 210.804 209.098 209.732 209.098 208.409C209.098 207.086 211.298 206.013 211.298 206.013C211.298 206.013 213.498 207.086 213.498 208.409Z" fill="#3F3D56"/>
<path d="M198.095 198.56C199.31 198.56 200.296 197.488 200.296 196.165C200.296 194.842 199.31 193.769 198.095 193.769C196.88 193.769 195.895 194.842 195.895 196.165C195.895 197.488 196.88 198.56 198.095 198.56Z" fill="#3F3D56"/>
<path d="M166.093 191.017L200.798 196.235C201.112 196.282 201.414 196.398 201.685 196.576C201.957 196.753 202.193 196.989 202.378 197.269C202.564 197.549 202.696 197.866 202.765 198.203C202.835 198.54 202.841 198.888 202.783 199.227C202.726 199.567 202.606 199.89 202.43 200.177C202.255 200.464 202.028 200.71 201.763 200.899C201.498 201.088 201.2 201.217 200.888 201.277C200.576 201.338 200.256 201.329 199.947 201.251L165.819 192.634C165.629 192.586 165.464 192.46 165.357 192.283C165.251 192.106 165.211 191.891 165.246 191.683C165.281 191.474 165.389 191.289 165.547 191.165C165.705 191.041 165.9 190.988 166.093 191.017Z" fill="#E4E4E4"/>
<path d="M208.265 71.9783V0H203.865V71.9783C197.852 72.5756 192.261 75.5981 188.19 80.4524C184.118 85.3067 181.861 91.6423 181.86 98.2155V105.402H197.263C197.263 107.943 198.191 110.381 199.841 112.178C201.492 113.975 203.731 114.984 206.065 114.984C208.399 114.984 210.638 113.975 212.289 112.178C213.939 110.381 214.867 107.943 214.867 105.402H230.27V98.2155C230.269 91.6423 228.012 85.3067 223.941 80.4524C219.869 75.5981 214.279 72.5756 208.265 71.9783Z" fill="#B6B6B6"/>
<path d="M264.927 53.9838V0H261.626V53.9838C257.117 54.4317 252.924 56.6986 249.87 60.3393C246.817 63.98 245.124 68.7317 245.123 73.6616V79.0515H256.675C256.675 80.9575 257.371 82.7854 258.609 84.1332C259.847 85.4809 261.526 86.238 263.277 86.238C265.028 86.238 266.707 85.4809 267.945 84.1332C269.183 82.7854 269.878 80.9575 269.878 79.0515H281.431V73.6616C281.43 68.7317 279.737 63.98 276.683 60.3393C273.63 56.6986 269.437 54.4317 264.927 53.9838Z" fill="#B6B6B6"/>
<path d="M153.438 53.9838V0H150.137V53.9838C145.627 54.4317 141.434 56.6986 138.381 60.3393C135.327 63.98 133.634 68.7317 133.634 73.6616V79.0515H145.186C145.186 80.9575 145.881 82.7854 147.119 84.1332C148.357 85.4809 150.036 86.238 151.787 86.238C153.538 86.238 155.217 85.4809 156.455 84.1332C157.693 82.7854 158.389 80.9575 158.389 79.0515H169.941V73.6616C169.94 68.7317 168.247 63.98 165.194 60.3393C162.14 56.6986 157.947 54.4317 153.438 53.9838Z" fill="#B6B6B6"/>
<path d="M352.096 126.922C348.982 122.968 347.501 117.723 345.012 113.233C342.522 108.744 338.19 104.726 333.613 105.77C330.458 106.491 328.019 109.521 326.785 112.9C325.551 116.279 325.319 120.006 325.103 123.656C325.18 116.154 320.639 108.882 314.385 106.488C308.132 104.094 300.647 106.764 296.717 112.791C295.002 111.061 292.764 110.075 290.426 110.022C288.088 109.969 285.814 110.851 284.034 112.501C280.518 115.921 279.741 122.431 282.326 126.794C284.911 131.156 290.509 132.781 294.617 130.362L296.07 131.816C295.252 134.929 296.838 138.606 299.503 139.778C301.664 140.728 304.715 140.57 305.524 143.039C306.089 144.764 305.032 146.605 303.909 147.931C302.785 149.256 301.451 150.625 301.316 152.46C301.113 155.228 303.74 157.167 306.128 157.75C311.887 159.159 318.277 156.255 321.597 150.722C321.661 150.616 321.73 150.509 321.805 150.402C323.668 147.809 325.025 144.83 325.794 141.648C326.563 138.465 326.728 135.144 326.279 131.89C326.092 130.611 326.28 129.66 327.09 129.357C330.59 128.048 340.398 130.795 343.366 133.278C346.334 135.761 348.711 139.047 351.57 141.691C354.429 144.334 358.073 146.373 361.703 145.653C364.61 145.077 367.084 142.779 368.747 140.007C370.411 137.235 371.368 134.005 372.226 130.794C365.797 134.837 356.998 133.144 352.096 126.922Z" fill="#2F2E41"/>
</g>
<defs>
<clipPath id="clip0_1_3">
<rect width="437" height="399" fill="white"/>
</clipPath>
</defs>
</svg>
